<svg width="120" height="70" viewBox="0 0 120 70" fill="none" xmlns="http://www.w3.org/2000/svg">
<path d="M13 60.7812V57.6201H32.8253V60.7812H13Z" fill="#834C33"/>
<path d="M32.8252 60.7812V57.6201H106.999V60.7812H32.8252Z" fill="#834C33"/>
<path d="M107 50.3581H98.9672V14.0481C98.9672 12.0831 98.1981 11.0579 96.7454 11.0579C95.549 11.0579 94.4381 11.6559 93.2418 12.9374C93.669 13.9627 93.9254 15.1588 93.9254 16.6966V48.9911H95.8908V50.3581H87.9436V14.0481C87.9436 12.0831 87.1745 11.0579 85.6364 11.0579C84.6109 11.0579 83.6709 11.485 82.8164 12.4248V48.9911H84.7818V50.3581H74.7837V48.9911H76.7491V11.3142H74.7837V9.86176H82.8164V10.9724C83.9273 10.0326 85.4654 9.52002 87.3454 9.52002C89.8236 9.52002 91.6181 10.2889 92.729 11.8268C94.2672 10.2889 96.1472 9.52002 98.4545 9.52002C102.898 9.52002 105.034 11.9122 105.034 16.6966V48.9911H107V50.3581Z" fill="#1A5D54"/>
<path d="M51.4551 42.8398C51.4551 45.0611 50.686 46.9407 49.2332 48.4785C47.6096 50.0164 45.5587 50.7853 43.0806 50.7853C40.6024 50.7853 38.5515 50.0164 36.9279 48.4785C35.3042 46.9407 34.5352 45.0611 34.5352 42.8398V38.0554H40.6024V46.2572C40.6024 48.3077 41.4569 49.3329 43.0806 49.3329C44.6187 49.3329 45.4733 48.3077 45.4733 46.2572V40.2767C45.4733 37.7991 44.7896 35.8341 43.3369 34.4671L36.9279 28.0595C35.3042 26.5217 34.5352 24.2149 34.5352 21.1392V17.4655C34.5352 15.2442 35.3042 13.3646 36.8424 11.8268C38.3806 10.2889 40.346 9.52002 42.9096 9.52002C45.3878 9.52002 47.4387 10.2889 48.9769 11.8268C50.5151 13.3646 51.2841 15.2442 51.2841 17.4655V22.2499H45.2169V14.0481C45.2169 11.9976 44.4478 10.9724 42.8242 10.9724C41.286 10.9724 40.5169 11.9976 40.5169 14.0481V19.4305C40.5169 21.9081 41.2006 23.8732 42.5678 25.2401L48.9769 31.5623C50.6005 33.1856 51.3696 35.4924 51.3696 38.4826V42.8398H51.4551Z" fill="#1A5D54"/>
<path d="M73.6715 50.3581H65.6388V49.2474C64.5279 50.2727 63.0752 50.6998 61.2806 50.6998C57.0079 50.6998 54.7861 48.3077 54.7861 43.5233V34.638C54.7861 29.5973 57.777 27.1197 63.7588 27.1197H65.6388V14.0481C65.6388 11.9976 64.8697 10.9724 63.3315 10.9724C61.8788 10.9724 61.1097 11.9976 61.1097 14.0481V22.2499H55.0425V17.4655C55.0425 15.0733 55.8116 13.1083 57.2643 11.6559C58.8025 10.2035 60.7679 9.52002 63.3315 9.52002C65.8952 9.52002 67.9461 10.2035 69.3988 11.6559C70.8515 13.1083 71.6206 14.9879 71.6206 17.4655V48.9911H73.6715V50.3581ZM65.6388 47.8805V28.4867H63.8443C61.8788 28.4867 60.8534 29.5119 60.8534 31.5623V46.2572C60.8534 48.2222 61.537 49.2474 62.9043 49.2474C63.8443 49.162 64.6988 48.7348 65.6388 47.8805Z" fill="#1A5D54"/>
<path d="M19.0672 43.1815V14.0481C19.0672 11.9976 20.0072 10.9724 21.8018 10.9724C23.5963 10.9724 24.5363 11.9976 24.5363 14.0481V36.6884C26.929 34.2963 29.1508 33.1002 30.6035 32.5021V17.4655C30.6035 15.2442 29.749 13.3646 28.1254 11.8268C26.4163 10.2889 24.3654 9.52002 21.8018 9.52002C19.2381 9.52002 17.1872 10.2889 15.4782 11.8268C13.8545 13.3646 13 15.2442 13 17.4655V42.8398C13 44.2922 13.3418 45.5737 14.0254 46.7698C14.3673 46.5989 14.7945 46.4281 15.2218 46.1718C16.2473 45.5737 17.6145 44.6339 19.0672 43.1815Z" fill="#1A5D54"/>
<path d="M29.6639 34.6381C28.2966 35.407 26.4167 36.6886 24.5367 38.9953V46.2573C24.5367 46.8554 24.4512 47.368 24.2803 47.7952C23.9385 48.8204 23.084 49.333 21.8021 49.333C21.6312 49.333 21.5458 49.333 21.3749 49.333C19.8367 49.1621 19.0676 48.1369 19.0676 46.2573V45.9156V45.403C17.5294 46.6845 16.1622 47.5388 15.0513 48.0515C15.2222 48.2223 15.3931 48.3932 15.564 48.5641C16.504 49.4184 17.5294 50.0165 18.7258 50.3582C18.8112 50.6145 18.8112 50.9563 18.7258 51.298C18.4694 51.9815 18.1276 52.665 17.7003 53.263C17.1876 53.9465 16.8458 54.5445 16.8458 55.3135C16.8458 57.0222 18.2985 58.4746 20.0076 58.4746C21.7167 58.4746 23.1694 57.0222 23.1694 55.3135C23.1694 54.5445 22.8276 53.8611 22.3149 53.263C21.8021 52.5795 21.3749 51.7252 21.204 50.9563V50.8708C21.4603 50.8708 21.7167 50.8708 21.973 50.8708C24.5367 50.8708 26.5876 50.1019 28.2966 48.5641C29.9203 47.0262 30.7748 45.1467 30.7748 42.9253V34.2109C30.3475 34.2964 30.0057 34.4672 29.6639 34.6381Z" fill="#834C33"/>
</svg>
